# xmcd
#
# Track frame offsets:
#	150
#	15826
#	28066
#	45556
#	57431
#	75080
#	84888
#	103386
#	120928
#	132990
#	146716
#	157953
#
# Disc length: 2246 seconds
#
# Revision: 1
# Processed by: cddbd v1.5.1PL0 Copyright (c) Steve Scherf et al.
# Submitted via: audiograbber 1.82.02
#
DISCID=8808c40c
DTITLE=Terry Gordon - Givin' The Lizard A Run
DYEAR=1900
DGENRE=Country
TTITLE0=Givin' The Lizard A Run
TTITLE1=Greyhound Blues
TTITLE2=Just Thank Me
TTITLE3=The Shearers Dream
TTITLE4=The Salesman
TTITLE5=Give Here One For Christmas
TTITLE6=Livin' On The Road
TTITLE7=Back In My Childhood Days
TTITLE8=Old Frank
TTITLE9=The Champ
TTITLE10=Big Burrawong
TTITLE11=Bullocky Bill
EXTD=
EXTT0=
EXTT1=
EXTT2=
EXTT3=
EXTT4=
EXTT5=
EXTT6=
EXTT7=
EXTT8=
EXTT9=
EXTT10=
EXTT11=
PLAYORDER=
